<svg id="Calque_1" data-name="Calque 1" xmlns="http://www.w3.org/2000/svg" viewBox="0 0 168.27 71.57"><defs><style>.cls-1{fill:#1d1d1b;}.cls-2{fill:#ed6f12;}</style></defs><path class="cls-1" d="M179.52,79.72a2,2,0,0,0,1.36.74h0l.39-.09a1.37,1.37,0,0,0,.81-1.12c0-.34-.2-.78-1.17-.94l-5.54-.08c-2.81,0-4.8.09-8.09.24l-3,.13c1-1.74,1.85-3.33,2.73-4.87a8.21,8.21,0,0,1,.79-1.25c.1-.12.2-.26.39-.54a1.61,1.61,0,0,0,.32-.88.8.8,0,0,0-.75-.87,1,1,0,0,0-.83.58c-.91,1.4-2.27,3.91-4.28,7.89-1.88.07-3.56.11-5.21.16-2.81.07-5.48.14-8.77.32-.08-.39-.68-.6-.75-.63h-.11a9.51,9.51,0,0,0-3,.81,1,1,0,0,0-.23.68.69.69,0,0,0,.57.74,8.68,8.68,0,0,0,2.52-.09l.51,0c5.46-.59,9.06-.84,14-1l-4.07,8.29c-.5,1-1.09,2.33-1.71,3.78-.54.52-1.41,1.53-2.42,2.71-2.22,2.59-5.59,6.52-6.71,6.52h-.05c-.09,0-.24,0-.24-.49a15,15,0,0,1,1-3.61A16,16,0,0,0,149,92.75a1.86,1.86,0,0,0-.15-.78,2,2,0,0,0-1-.94,4.52,4.52,0,0,1-.6-.39l0-.06a3.34,3.34,0,0,0,.37-.76,1.27,1.27,0,0,0,.19-.67.54.54,0,0,0-.38-.59l-.22,0a1.39,1.39,0,0,0-1,.68,1.81,1.81,0,0,0-.4,1.07,1.28,1.28,0,0,0,.15.57c-1.66,2.42-4.54,5.72-6,5.72-.18,0-.35-.08-.35-.6,0-1.56,1.71-5,1.92-5.37l0-.12a.22.22,0,0,0,0-.08.4.4,0,0,0-.19-.33.22.22,0,0,0-.17-.07h-.08a.5.5,0,0,0-.34.12,1.16,1.16,0,0,0-.24.26,1.55,1.55,0,0,0-1.16-.62h-.19c-1.35.18-3.19,3-3.19,4.43a.9.9,0,0,0,.75,1H137c.64,0,1.49-.77,2.4-1.77a7.76,7.76,0,0,0-.53,2.48l0,.38a1.27,1.27,0,0,0,1.18,1.16c2,0,5-3.67,6.59-6a7.33,7.33,0,0,0,.61.43,1.66,1.66,0,0,1,.7.64.52.52,0,0,1,.05.23,13.56,13.56,0,0,1-.85,3.05,16.6,16.6,0,0,0-1.16,4.53c0,1.24.7,1.46,1.12,1.49h.09c1.42,0,3.87-2.79,6.93-6.42.51-.61,1-1.17,1.42-1.67a49.68,49.68,0,0,0-3.34,12.13v.35c0,.16,0,1.61.58,1.85h0l.12,0H153a.56.56,0,0,0,.59-.62l-.05-.2a3.5,3.5,0,0,1-.36-1.23c.27-3.7,1.74-8.39,4.5-14.34,2.12-4.56,4-8.3,6-12.11l7.08-.08,8.56.08.14.14M137.13,94.35c.12-.9,1.74-3.42,2.56-3.52h.12c.14,0,.21,0,.36.4a1.45,1.45,0,0,1-.18.21,14.6,14.6,0,0,1-2.86,2.91" transform="translate(-66.1 -43.58)"/><path class="cls-1" d="M189.29,82.25a3.23,3.23,0,0,0-.43.58.92.92,0,0,0-.16.48c0,.39.42.63.81.64l.19,0,.07,0a4.26,4.26,0,0,0,1.37-2.07l.05-.14a4.15,4.15,0,0,0,.37-1.6,1.39,1.39,0,0,0-.85-1.45l-.4-.08c-2.33,0-6.16,6.23-9.6,12.9h-.13c-.71.06-1.31.12-1.83.12a4.94,4.94,0,0,1-3-.7,3,3,0,0,1-.4-.28,2.64,2.64,0,0,0-.32-.22.79.79,0,0,0-.65-.46.27.27,0,0,0-.12,0c-.95.52-2.41,3.21-2.41,4.86a1.27,1.27,0,0,0,1,1.4H173c1.29,0,2.84-2.58,2.91-4.3a7.67,7.67,0,0,0,2.85.47c.49,0,1,0,1.52-.09-.68,1.35-1.35,2.71-2,4-.31.2-1.64,1.09-1.64,1.68v.07a.27.27,0,0,0,0,.12.77.77,0,0,0,.6.36c-.82,1.77-5,11-5,14.8,0,1.56.77,1.79,1.22,1.79h.13c2.3-.17,6-8,6.54-12.87l.08-1.14c0-1.65-.48-2.76-1.36-3.16.2-.47.48-1.09.64-1.42A58.91,58.91,0,0,1,191,92.22c.25-.07.42-.22.42-.44s-.09-.33-.41-.33h-.18A75.49,75.49,0,0,0,180,95.4c5.1-10.82,8.75-15.66,10.09-15.67l.19,0c.06,0,.07,0,.07.06a7.64,7.64,0,0,1-.75,2,1.21,1.21,0,0,1-.29.47m-10,20h0c-.66,4.69-4,11.58-5.76,11.9a.73.73,0,0,1,0-.31c0-1.56,1.85-7.06,5.07-15.08.49.25.81,1.15.81,2.36a5.62,5.62,0,0,1-.08,1.12m-4.76-10.91a.44.44,0,0,1,.24.43,3.63,3.63,0,0,1-.2,1l0,.12h0c-.19.7-1.09,2.34-1.44,2.4h0c-.08,0-.15-.11-.15-.4a7.36,7.36,0,0,1,1.58-3.53" transform="translate(-66.1 -43.58)"/><path class="cls-1" d="M234,91.42a.57.57,0,0,0-.4.18c-.53.49-1.45,1.57-2.52,2.81-2.22,2.59-5.59,6.52-6.71,6.52h0c-.09,0-.24,0-.24-.49a15,15,0,0,1,1-3.61,15.55,15.55,0,0,0,1.07-4.08A1.74,1.74,0,0,0,226,92a2,2,0,0,0-1-.94,4,4,0,0,1-.61-.39l0,0a3.4,3.4,0,0,0,.37-.77,1.27,1.27,0,0,0,.19-.67.54.54,0,0,0-.38-.59l-.22,0a1.39,1.39,0,0,0-1,.68,1.81,1.81,0,0,0-.4,1.07,1.28,1.28,0,0,0,.15.57c-1.66,2.42-4.54,5.72-5.95,5.72-.17,0-.35-.08-.35-.6,0-1.58,1.71-5,1.92-5.38l0-.11a.22.22,0,0,0,0-.08.42.42,0,0,0-.18-.33.26.26,0,0,0-.18-.07h-.08a.52.52,0,0,0-.34.12,1.45,1.45,0,0,0-.24.26,1.53,1.53,0,0,0-1.16-.62h-.19a3.92,3.92,0,0,0-2.14,1.8,33.57,33.57,0,0,1-4.21,2.06l-.61.26a6.22,6.22,0,0,0,.36-1.93c0-1.59-.81-2.57-2.14-2.57-2.81,0-5.88,3.75-7.39,5.88.31-1.08.7-2.22,1.17-3.44,4.08-2.07,12.58-12.31,14.37-16.2a6.68,6.68,0,0,0,.68-2.46,1.62,1.62,0,0,0-.73-1.45,1.49,1.49,0,0,0-.87-.27c-2,0-4.65,3-6.08,4.81a64.42,64.42,0,0,0-8.5,15.14,35,35,0,0,0-2,6.78v.08c0,.33.21.67.52.67H199a1.11,1.11,0,0,0,.82-.41l.73-1.11c1.57-2.47,4.51-7.06,6.94-7.06l.23,0c.77,0,.89.9.89,1.41a7,7,0,0,1-.75,2.83l-.25.11c-2.86,1.32-6.16,3-6.15,4.71l0,.34s0,0,0,.08a1.36,1.36,0,0,0,1.32.61h.34c2.59-.38,4.79-3.16,5.91-5.47l1.06-.47c1.21-.53,2.29-1,3.46-1.63a3.64,3.64,0,0,0-.31,1.29.9.9,0,0,0,.75,1h.08c.64,0,1.49-.77,2.4-1.77a7.49,7.49,0,0,0-.52,2.48l0,.38a1.27,1.27,0,0,0,1.18,1.16c2,0,5-3.67,6.59-6a7.33,7.33,0,0,0,.61.43,1.64,1.64,0,0,1,.7.63.62.62,0,0,1,0,.24,13,13,0,0,1-.85,3.05,16.6,16.6,0,0,0-1.16,4.53c0,1.24.7,1.46,1.12,1.49h.09c1.42,0,3.88-2.78,6.93-6.42a36.47,36.47,0,0,1,2.88-3.21.67.67,0,0,0,.19-.44.3.3,0,0,0-.33-.29m-19.77,2.93c.13-.9,1.74-3.42,2.56-3.52H217c.14,0,.21,0,.37.4l-.18.21a14.78,14.78,0,0,1-2.87,2.91M202.84,99.5a.51.51,0,0,1-.3-.08v-.14c0-.76,2.22-2.22,4.62-3.4A7.83,7.83,0,0,1,203,99.5Zm-.72-9.1a62.8,62.8,0,0,1,7.6-13.51c1-1.26,3.78-4.54,5.26-4.54a.59.59,0,0,1,.38.12c.14.08.33.24.33.71a5.24,5.24,0,0,1-.63,2.06c-1.94,4.05-9,12.21-12.94,15.16" transform="translate(-66.1 -43.58)"/><path class="cls-1" d="M70.41,48a14.7,14.7,0,0,1,21,0,14.94,14.94,0,0,1,0,21,14.73,14.73,0,0,1-21,0,15,15,0,0,1,0-21m18,3a10.56,10.56,0,0,0-7.52-3.16A10.37,10.37,0,0,0,73.45,51a10.61,10.61,0,0,0,0,15,10.37,10.37,0,0,0,7.43,3.16A10.68,10.68,0,0,0,88.4,51" transform="translate(-66.1 -43.58)"/><path class="cls-2" d="M111.35,44.12c7,0,10.35,9.07,4.84,13a7.2,7.2,0,0,1,4.27,6.49c0,4.64-3.16,9.28-9.19,9.28H98.05V44.12ZM105,54.51h5.3c2.42,0,2.34-4,.08-4H105Zm0,11.7h6.29c3,0,3-5.22,0-5.22H105Z" transform="translate(-66.1 -43.58)"/><path class="cls-2" d="M140.09,68.63h-9.81l-1.61,4.23h-7.51l11.5-29.07h5l12,29.07h-7.93Zm-7-7.19-.25.66h4.77l-.17-.49-2.22-6.24Z" transform="translate(-66.1 -43.58)"/><path class="cls-2" d="M158.81,63.13v9.73h-7V44.12H163c11.42,0,13.1,14.08,4.27,18.31l6.16,9.12v1.31H166l-6-9.73Zm0-6.37h4a3,3,0,1,0,0-5.91h-4Z" transform="translate(-66.1 -43.58)"/><polygon class="cls-1" points="115.17 0.53 122.97 11.09 130.81 0.53 135.87 0.53 125.48 14.66 135.87 29.28 130.81 29.28 122.97 17.98 115.17 29.28 110.08 29.28 120.47 14.66 110.08 0.53 115.17 0.53"/><path class="cls-1" d="M208.82,48a14.7,14.7,0,0,1,21,0,14.94,14.94,0,0,1,0,21,14.73,14.73,0,0,1-21,0,15,15,0,0,1,0-21m18,3a10.56,10.56,0,0,0-7.52-3.16A10.37,10.37,0,0,0,211.86,51a10.61,10.61,0,0,0,0,15,10.37,10.37,0,0,0,7.43,3.16A10.68,10.68,0,0,0,226.81,51" transform="translate(-66.1 -43.58)"/></svg>